<svg width="792" height="80" viewBox="0 0 792 80" fill="none" xmlns="http://www.w3.org/2000/svg">
<g clip-path="url(#clip0_1540_80780)">
<rect width="792" height="80" fill="url(#paint0_linear_1540_80780)"/>
<mask id="mask0_1540_80780" style="mask-type:luminance" maskUnits="userSpaceOnUse" x="0" y="0" width="792" height="80">
<rect width="792" height="80" fill="white"/>
</mask>
<g mask="url(#mask0_1540_80780)">
<path fill-rule="evenodd" clip-rule="evenodd" d="M171.07 49.1382C171.07 48.0336 171.966 47.1382 173.07 47.1382H183.742V53.4733H171.07V49.1382ZM183.742 55.585H171.07V70.3668H183.742V55.585ZM198.526 55.585H185.854V70.3668H198.526V55.585ZM196.526 47.1382C197.631 47.1382 198.526 48.0336 198.526 49.1382V53.4733H185.854V47.1382H196.526Z" fill="black" fill-opacity="0.1"/>
<path fill-rule="evenodd" clip-rule="evenodd" d="M175.297 43.8456C175.297 43.1411 176.006 42.6575 176.662 42.9146L183.745 45.6915V47.1382H175.297V43.8456Z" fill="black" fill-opacity="0.1"/>
<path fill-rule="evenodd" clip-rule="evenodd" d="M194.305 43.8352C194.305 43.1303 193.595 42.6466 192.939 42.9045L185.857 45.688V47.1382H194.305V43.8352Z" fill="black" fill-opacity="0.1"/>
<path fill-rule="evenodd" clip-rule="evenodd" d="M608.258 49.1382C608.258 48.0336 609.153 47.1382 610.258 47.1382H620.93V53.4733H608.258V49.1382ZM620.93 55.585H608.258V70.3668H620.93V55.585ZM635.714 55.585H623.042V70.3668H635.714V55.585ZM633.714 47.1382C634.818 47.1382 635.714 48.0336 635.714 49.1382V53.4733H623.042V47.1382H633.714Z" fill="black" fill-opacity="0.1"/>
<path fill-rule="evenodd" clip-rule="evenodd" d="M612.484 43.8456C612.484 43.1411 613.193 42.6575 613.849 42.9146L620.932 45.6915V47.1382H612.484V43.8456Z" fill="black" fill-opacity="0.1"/>
<path fill-rule="evenodd" clip-rule="evenodd" d="M631.492 43.8352C631.492 43.1303 630.782 42.6466 630.126 42.9045L623.044 45.688V47.1382H631.492V43.8352Z" fill="black" fill-opacity="0.1"/>
<path fill-rule="evenodd" clip-rule="evenodd" d="M-6.33594 59.8935C-6.33594 69.2188 1.23347 76.7871 10.5601 76.7871C19.8867 76.7871 27.4561 69.2188 27.4561 59.8935C27.4561 50.5683 19.8867 43 10.5601 43C1.23347 43 -6.33594 50.5683 -6.33594 59.8935ZM4.7016 51.1498H10.7694C15.923 51.1498 18.3709 53.3521 18.3709 57.4665C18.3709 61.897 15.7743 64.2467 10.9133 64.2467H8.14936V70.749H4.7016V51.1498ZM15.4087 57.9303C15.4087 60.5609 14.1451 61.8204 10.5124 61.8204L8.09039 61.8069V53.9807L10.723 53.9942C13.9345 53.9942 15.4087 54.9782 15.4087 57.9303Z" fill="black" fill-opacity="0.1"/>
<path fill-rule="evenodd" clip-rule="evenodd" d="M690.625 5.89354C690.625 15.2188 698.194 22.7871 707.521 22.7871C716.848 22.7871 724.417 15.2188 724.417 5.89354C724.417 -3.43169 716.848 -11 707.521 -11C698.194 -11 690.625 -3.43169 690.625 5.89354ZM701.663 -2.85024H707.73C712.884 -2.85024 715.332 -0.647925 715.332 3.46646C715.332 7.89696 712.735 10.2467 707.874 10.2467H705.11V16.749H701.663V-2.85024ZM712.37 3.9303C712.37 6.5609 711.106 7.82044 707.473 7.82044L705.051 7.80695V-0.0192604L707.684 -0.00576591C710.895 -0.00576591 712.37 0.97825 712.37 3.9303Z" fill="black" fill-opacity="0.1"/>
<path fill-rule="evenodd" clip-rule="evenodd" d="M289.344 5.89354C289.344 15.2188 296.913 22.7871 306.24 22.7871C315.566 22.7871 323.136 15.2188 323.136 5.89354C323.136 -3.43169 315.566 -11 306.24 -11C296.913 -11 289.344 -3.43169 289.344 5.89354ZM300.381 -2.85024H306.449C311.603 -2.85024 314.051 -0.647924 314.051 3.46646C314.051 7.89696 311.454 10.2467 306.593 10.2467H303.829V16.749H300.381V-2.85024ZM311.088 3.9303C311.088 6.5609 309.825 7.82044 306.192 7.82044L303.77 7.80695V-0.0192604L306.403 -0.00576591C309.614 -0.00576591 311.088 0.97825 311.088 3.9303Z" fill="black" fill-opacity="0.1"/>
<path fill-rule="evenodd" clip-rule="evenodd" d="M464.641 39.3457C464.641 48.6709 472.21 56.2392 481.537 56.2392C490.863 56.2392 498.433 48.6709 498.433 39.3457C498.433 30.0205 490.863 22.4521 481.537 22.4521C472.21 22.4521 464.641 30.0205 464.641 39.3457ZM475.678 30.6019H481.746C486.9 30.6019 489.347 32.8042 489.347 36.9186C489.347 41.3491 486.751 43.6989 481.89 43.6989H479.126V50.2012H475.678V30.6019ZM486.385 37.3824C486.385 40.0131 485.122 41.2726 481.489 41.2726L479.067 41.2591V33.4329L481.7 33.4464C484.911 33.4464 486.385 34.4304 486.385 37.3824Z" fill="black" fill-opacity="0.1"/>
<path fill-rule="evenodd" clip-rule="evenodd" d="M350.594 68C350.594 66.8954 351.489 66 352.594 66H382.386C383.49 66 384.386 66.8954 384.386 68L384.386 80.7818H350.594V85.0052H384.386L384.386 89.3403C384.386 90.4449 383.49 91.3403 382.386 91.3403H352.594C351.489 91.3403 350.594 90.4449 350.594 89.3403V68ZM371.714 74.4468H378.05V72.3351H371.714V74.4468Z" fill="black" fill-opacity="0.1"/>
<path fill-rule="evenodd" clip-rule="evenodd" d="M65.4688 -9.33496C65.4688 -10.4395 66.3642 -11.335 67.4688 -11.335H97.2608C98.3653 -11.335 99.2607 -10.4395 99.2607 -9.33496V3.44689H65.4688V-9.33496ZM65.4688 7.67027H99.2607V12.0054C99.2607 13.1099 98.3653 14.0054 97.2607 14.0054H67.4687C66.3642 14.0054 65.4688 13.1099 65.4688 12.0054V7.67027ZM86.5887 -2.88819H92.9247V-4.99988H86.5887V-2.88819Z" fill="black" fill-opacity="0.1"/>
<path fill-rule="evenodd" clip-rule="evenodd" d="M766.656 68C766.656 66.8954 767.552 66 768.656 66H798.448C799.553 66 800.448 66.8954 800.448 68V89.3403C800.448 90.4449 799.553 91.3403 798.448 91.3403H768.656C767.552 91.3403 766.656 90.4449 766.656 89.3403L766.656 85.0052H800.448V80.7818H766.656L766.656 68ZM787.776 74.4468H794.112V72.3351H787.776V74.4468Z" fill="black" fill-opacity="0.1"/>
<path opacity="0.2" fill-rule="evenodd" clip-rule="evenodd" d="M559.68 -11.4468C559.68 -12.5513 560.575 -13.4468 561.68 -13.4468H591.472C592.576 -13.4468 593.472 -12.5513 593.472 -11.4468L593.472 1.33507H559.68V5.55846H593.472L593.472 9.89354C593.472 10.9981 592.576 11.8935 591.472 11.8935H561.68C560.575 11.8935 559.68 10.9981 559.68 9.89354V-11.4468ZM580.8 -5.00001H587.136V-7.1117H580.8V-5.00001Z" fill="black" fill-opacity="0.56"/>
</g>
</g>
<defs>
<linearGradient id="paint0_linear_1540_80780" x1="-396" y1="40" x2="-380.002" y2="198.384" gradientUnits="userSpaceOnUse">
<stop stop-color="#F33D69"/>
<stop offset="1" stop-color="#F8625F"/>
</linearGradient>
<clipPath id="clip0_1540_80780">
<rect width="792" height="80" fill="white"/>
</clipPath>
</defs>
</svg>
