<svg width="32" height="32" viewBox="0 0 32 32" fill="none" xmlns="http://www.w3.org/2000/svg">
<g id="icn_facil_restr_def">
<path id="Vector" fill-rule="evenodd" clip-rule="evenodd" d="M16 9C14.8954 9 14 8.10457 14 7C14 5.89543 14.8954 5 16 5C17.1046 5 18 5.89543 18 7C18 8.10457 17.1046 9 16 9ZM3 23C3 23.3365 3.01278 23.67 3.03789 24H2.5C2.22386 24 2 24.2239 2 24.5C2 24.7761 2.22386 25 2.5 25H29.5C29.7761 25 30 24.7761 30 24.5C30 24.2239 29.7761 24 29.5 24H28.9621C28.9872 23.67 29 23.3365 29 23C29 15.8203 23.1797 10 16 10C8.8203 10 3 15.8203 3 23ZM28 23C28 23.3354 27.9863 23.6689 27.959 24H4.04102C4.01373 23.6689 4 23.3354 4 23C4 16.3726 9.37258 11 16 11C22.6274 11 28 16.3726 28 23ZM17 7C17 7.55228 16.5523 8 16 8C15.4477 8 15 7.55228 15 7C15 6.44772 15.4477 6 16 6C16.5523 6 17 6.44772 17 7ZM28.5 26C28.7761 26 29 26.2239 29 26.5C29 26.7761 28.7761 27 28.5 27H3.5C3.22386 27 3 26.7761 3 26.5C3 26.2239 3.22386 26 3.5 26H28.5ZM6.8562 19.4605C7.11778 19.5489 7.40156 19.4086 7.49004 19.147C8.39407 16.4744 10.4723 14.3376 13.1286 13.4449C13.3904 13.357 13.5312 13.0735 13.4433 12.8117C13.3553 12.5499 13.0718 12.409 12.8101 12.497C9.85232 13.4909 7.54517 15.8631 6.54277 18.8266C6.45429 19.0882 6.59461 19.372 6.8562 19.4605Z" fill="#333333"/>
</g>
</svg>
