<svg width="32" height="32" viewBox="0 0 32 32" fill="none" xmlns="http://www.w3.org/2000/svg">
<g id="icn_facil_wifi">
<path id="Vector" fill-rule="evenodd" clip-rule="evenodd" d="M2.16483 12.871C2.36974 13.0561 2.68592 13.0401 2.87103 12.8352C6.38761 8.94247 10.7904 7 16 7C21.2153 7 25.6127 8.93942 29.1288 12.835C29.3139 13.04 29.63 13.0562 29.835 12.8712C30.04 12.6861 30.0562 12.37 29.8712 12.165C26.1647 8.05853 21.4972 6 16 6C10.5084 6 5.83578 8.06155 2.12898 12.1648C1.94387 12.3697 1.95992 12.6859 2.16483 12.871ZM16 27C14.8954 27 14 26.1046 14 25C14 23.8954 14.8954 23 16 23C17.1046 23 18 23.8954 18 25C18 26.1046 17.1046 27 16 27ZM16 26C16.5523 26 17 25.5523 17 25C17 24.4477 16.5523 24 16 24C15.4477 24 15 24.4477 15 25C15 25.5523 15.4477 26 16 26ZM6.85916 16.8431C6.66704 17.0415 6.35049 17.0465 6.15214 16.8544C5.95378 16.6623 5.94873 16.3457 6.14085 16.1474C8.81509 13.3863 12.1107 12 15.9977 12C19.887 12 23.1842 13.388 25.8593 16.1523C26.0513 16.3507 26.0461 16.6673 25.8477 16.8593C25.6493 17.0513 25.3327 17.0462 25.1407 16.8477C22.6546 14.2787 19.617 13 15.9977 13C12.3806 13 9.3444 14.2772 6.85916 16.8431ZM11.162 20.866C11.3654 21.0527 11.6817 21.0391 11.8684 20.8357C12.9961 19.6066 14.3624 19 15.9989 19C17.6364 19 19.0033 19.6074 20.1314 20.8379C20.3181 21.0414 20.6343 21.0552 20.8379 20.8686C21.0414 20.6819 21.0552 20.3657 20.8686 20.1621C19.5519 18.726 17.9181 18 15.9989 18C14.0809 18 12.4478 18.7251 11.1316 20.1596C10.9449 20.363 10.9585 20.6793 11.162 20.866Z" fill="#333333"/>
</g>
</svg>
