<svg width="32" height="32" viewBox="0 0 32 32" fill="none" xmlns="http://www.w3.org/2000/svg">
<path fill-rule="evenodd" clip-rule="evenodd" d="M10.5 3C10.7761 3 11 3.20029 11 3.44737V5H21V3.44737C21 3.20029 21.2239 3 21.5 3C21.7761 3 22 3.20029 22 3.44737V13H24V9.99754C24 9.44662 24.4427 9 24.999 9H26.001C26.5528 9 27 9.44631 27 9.99754V13H28V10H28.5C28.7681 10 29 10.2254 29 10.5034V13H29.5C29.7761 13 30 13.2239 30 13.5C30 13.7761 29.7761 14 29.5 14H29V16.4966C29 16.7671 28.7761 17 28.5 17H28V14H27V17.0025C27 17.5534 26.5573 18 26.001 18H24.999C24.4472 18 24 17.5537 24 17.0025V14H22V19H24.6087C25.9294 19 27 20.1193 27 21.5C27 22.8807 25.9294 24 24.6087 24H22V28C22.5523 28 23 28.4477 23 29H20C20 28.4477 20.4477 28 21 28V24H11V28C11.5523 28 12 28.4477 12 29H9C9 28.4477 9.44772 28 10 28V24H7.3913C6.07062 24 5 22.8807 5 21.5C5 20.1193 6.07062 19 7.3913 19H10V14H8V17.0025C8 17.5534 7.55734 18 7.00104 18H5.99896C5.44725 18 5 17.5537 5 17.0025V14H4V17H3.5C3.22386 17 3 16.7671 3 16.4966V14H2.5C2.22386 14 2 13.7761 2 13.5C2 13.2239 2.22386 13 2.5 13H3V10.5034C3 10.2254 3.23193 10 3.5 10H4V13H5V9.99754C5 9.44662 5.44266 9 5.99896 9H7.00104C7.55275 9 8 9.44631 8 9.99754V13H10V3.44737C10 3.20029 10.2239 3 10.5 3ZM21 20H11H10H7.42857C6.63959 20 6 20.6716 6 21.5C6 22.3284 6.63959 23 7.42857 23H24.5714C25.3604 23 26 22.3284 26 21.5C26 20.6716 25.3604 20 24.5714 20H22H21ZM21 19V14H11V19H21ZM21 13V6H11V13H21ZM6 10H7V17H6V10ZM25 10H26V17H25V10Z" fill="#333333"/>
</svg>
