<svg width="32" height="32" viewBox="0 0 32 32" fill="none" xmlns="http://www.w3.org/2000/svg">
<g id="icn_facil_smoke_free">
<path id="Vector" fill-rule="evenodd" clip-rule="evenodd" d="M2 16C2 8.26801 8.26631 2 16 2C23.732 2 30 8.26631 30 16C30 23.732 23.7337 30 16 30C8.26801 30 2 23.7337 2 16ZM6.4605 7.16761C4.3127 9.48631 3 12.5897 3 16C3 23.1808 8.81969 29 16 29C19.4104 29 22.5138 27.6873 24.8324 25.5395L17.2929 18H7C6.44772 18 6 17.5523 6 17V15C6 14.4477 6.44772 14 7 14H13.2929L6.4605 7.16761ZM14.7071 14L7.16761 6.4605C9.48624 4.31274 12.5896 3 16 3C23.1803 3 29 8.8192 29 16C29 19.4103 27.6873 22.5137 25.5395 24.8324L18.7071 18H23C23.5523 18 24 17.5523 24 17V15C24 14.4477 23.5523 14 23 14H14.7071ZM14.2929 15H12V17H16.2929L14.2929 15ZM17.7071 17L15.7071 15H23V17H17.7071ZM11 15H7V17H11V15ZM26 14.5C26 14.2239 25.7761 14 25.5 14C25.2239 14 25 14.2239 25 14.5V17.5C25 17.7761 25.2239 18 25.5 18C25.7761 18 26 17.7761 26 17.5V14.5Z" fill="#333333"/>
</g>
</svg>
