<svg width="32" height="32" viewBox="0 0 32 32" fill="none" xmlns="http://www.w3.org/2000/svg">
<g id="icn_facil_minibar_def">
<path id="Vector" fill-rule="evenodd" clip-rule="evenodd" d="M11 3H10.5C10.2239 3 10 2.77614 10 2.5C10 2.22386 10.2239 2 10.5 2H14.5C14.7761 2 15 2.22386 15 2.5C15 2.77614 14.7761 3 14.5 3H14C14.5523 3 15 3.44772 15 4V8H19V6.95038C17.8589 6.72045 17 5.71791 17 4.5V2H22V4.5C22 5.71045 21.1471 6.71997 20 6.95054V8H23C24.6569 8 26 9.34315 26 11V28C26 28.5523 25.5523 29 25 29H23V30H22V29H10V30H9V29H7C6.44772 29 6 28.5523 6 28V11C6 9.34315 7.34315 8 9 8H10V4C10 3.44772 10.4477 3 11 3ZM14 8V4H11V8H14ZM9 9H23C24.1046 9 25 9.89543 25 11V28H7V11C7 9.89543 7.89543 9 9 9ZM18 3V4.5C18 5.3342 18.6716 6 19.5 6C20.3342 6 21 5.32843 21 4.5V3H18ZM11 13.5C11 13.2239 10.7761 13 10.5 13C10.2239 13 10 13.2239 10 13.5V15.5C10 15.7761 10.2239 16 10.5 16C10.7761 16 11 15.7761 11 15.5V13.5Z" fill="#333333"/>
</g>
</svg>
