<svg width="32" height="32" viewBox="0 0 32 32" fill="none" xmlns="http://www.w3.org/2000/svg">
<g id="icn_facil_tv">
<path id="Vector" fill-rule="evenodd" clip-rule="evenodd" d="M20 25V27H25.5C25.7761 27 26 27.2239 26 27.5C26 27.7761 25.7761 28 25.5 28H6.5C6.22386 28 6 27.7761 6 27.5C6 27.2239 6.22386 27 6.5 27H12V25H6C4.34315 25 3 23.6568 3 22V11C3 9.34314 4.34315 7.99999 6 7.99999H14.5981L12.25 3.93301C12.1119 3.69386 12.1939 3.38806 12.433 3.24999C12.6722 3.11192 12.978 3.19386 13.116 3.43301L15.616 7.76313C15.6592 7.83795 15.6809 7.9193 15.6829 7.99999H16.3131C16.3151 7.9193 16.3368 7.83795 16.38 7.76313L18.88 3.43301C19.0181 3.19386 19.3239 3.11192 19.563 3.24999C19.8022 3.38806 19.8841 3.69386 19.746 3.93301L17.3979 7.99999H26C27.6569 7.99999 29 9.34314 29 11V22C29 23.6568 27.6569 25 26 25H20ZM19 25H13V27H19V25ZM4 11C4 9.89542 4.89543 8.99999 6 8.99999H26C27.1046 8.99999 28 9.89542 28 11V22C28 23.1046 27.1046 24 26 24H6C4.89543 24 4 23.1046 4 22V11Z" fill="#333333"/>
</g>
</svg>
