<svg width="32" height="32" viewBox="0 0 32 32" fill="none" xmlns="http://www.w3.org/2000/svg">
<g id="icn_facil_printer">
<path id="Vector" fill-rule="evenodd" clip-rule="evenodd" d="M24 22V27.0044C24 27.5543 23.5554 28 22.9991 28H9.00087C8.44811 28 8 27.5552 8 27.0044V22H3.99124C2.89151 22 2 21.1065 2 19.9972V11.0028C2 9.89667 2.8999 9 3.99124 9H6V7C6 5.34315 7.34331 4 8.9942 4H23.0058C24.6595 4 26 5.34652 26 7V9H28.0088C29.1085 9 30 9.89354 30 11.0028V19.9972C30 21.1033 29.1001 22 28.0088 22H24ZM24 21H27.9967C28.5487 21 29 20.5543 29 20.0044V10.9956C29 10.4448 28.5508 10 27.9967 10H4.0033C3.45128 10 3 10.4457 3 10.9956V20.0044C3 20.5552 3.44919 21 4.0033 21H8V17H24V21ZM7 9V7C7 5.89543 7.89262 5 8.99509 5H23.0049C24.1068 5 25 5.88773 25 7V9H7ZM9 18V27.0001L22.9991 27C22.9994 27 22.9997 24 23 18H9ZM7.50021 15C7.22759 15 7 15.2239 7 15.5C7 15.7681 7.22395 16 7.50021 16H24.4998C24.7724 16 25 15.7761 25 15.5C25 15.2319 24.776 15 24.4998 15H7.50021ZM11 20.5C11 20.2239 11.2277 20 11.5096 20H20.4904C20.7718 20 21 20.2319 21 20.5C21 20.7761 20.7723 21 20.4904 21H11.5096C11.2282 21 11 20.7681 11 20.5ZM11.5096 23C11.2277 23 11 23.2239 11 23.5C11 23.7681 11.2282 24 11.5096 24H20.4904C20.7723 24 21 23.7761 21 23.5C21 23.2319 20.7718 23 20.4904 23H11.5096Z" fill="#333333"/>
</g>
</svg>
