<svg width="32" height="32" viewBox="0 0 32 32" fill="none" xmlns="http://www.w3.org/2000/svg">
<g id="icn_facil_sauna">
<path id="Vector" fill-rule="evenodd" clip-rule="evenodd" d="M26 3H6C4.34315 3 3 4.34315 3 6V26C3 27.6569 4.34315 29 6 29H26C27.6569 29 29 27.6569 29 26V6C29 4.34315 27.6569 3 26 3ZM4 6C4 4.89543 4.89543 4 6 4H26C27.1046 4 28 4.89543 28 6V26C28 27.1046 27.1046 28 26 28H6C4.89543 28 4 27.1046 4 26V6ZM24 25H25.5C25.7761 25 26 25.2239 26 25.5C26 25.7761 25.7761 26 25.5 26H6.5C6.22386 26 6 25.7761 6 25.5C6 25.2239 6.22386 25 6.5 25H8V24C7.44772 24 7 23.5523 7 23V22C7 20.8954 7.89543 20 9 20H13C14.1046 20 15 20.8954 15 22V23C15 23.5523 14.5523 24 14 24V25H18V24C17.4477 24 17 23.5523 17 23V22C17 20.8954 17.8954 20 19 20H23C24.1046 20 25 20.8954 25 22V23C25 23.5523 24.5523 24 24 24V25ZM23 24V25H19V24H23ZM9 25H13V24H9V25ZM14 23H8V22C8 21.4477 8.44772 21 9 21H13C13.5523 21 14 21.4477 14 22V23ZM18 23H24V22C24 21.4477 23.5523 21 23 21H19C18.4477 21 18 21.4477 18 22V23ZM13.3797 10.1913C13.2388 9.99298 12.9546 9.94031 12.7449 10.0737C12.2825 10.3679 12 10.8947 12 11.4664C12 12.0385 12.2821 12.5649 12.7446 12.8591C12.9484 12.9889 13.0852 13.2439 13.0852 13.534C13.0852 13.8238 12.9486 14.0787 12.7453 14.2078C12.5355 14.341 12.4796 14.6099 12.6204 14.8083C12.7612 15.0068 13.0453 15.0597 13.2551 14.9265C13.7176 14.6328 14 14.1059 14 13.534C14 12.962 13.7175 12.4351 13.2551 12.1409C13.0513 12.0112 12.9148 11.7565 12.9148 11.4664C12.9148 11.1768 13.0516 10.9217 13.2554 10.792C13.465 10.6586 13.5207 10.3897 13.3797 10.1913ZM15.7449 10.0737C15.9546 9.94031 16.2388 9.99298 16.3797 10.1913C16.5207 10.3897 16.465 10.6586 16.2554 10.792C16.0516 10.9217 15.9148 11.1768 15.9148 11.4664C15.9148 11.7565 16.0513 12.0112 16.2551 12.1409C16.7175 12.4351 17 12.962 17 13.534C17 14.1059 16.7176 14.6328 16.2551 14.9265C16.0453 15.0597 15.7612 15.0068 15.6204 14.8083C15.4796 14.6099 15.5355 14.341 15.7453 14.2078C15.9486 14.0787 16.0852 13.8238 16.0852 13.534C16.0852 13.2439 15.9484 12.9889 15.7446 12.8591C15.2821 12.5649 15 12.0385 15 11.4664C15 10.8947 15.2825 10.3679 15.7449 10.0737ZM19.3797 10.1913C19.2388 9.99298 18.9546 9.94031 18.7449 10.0737C18.2825 10.3679 18 10.8947 18 11.4664C18 12.0385 18.2821 12.5649 18.7446 12.8591C18.9484 12.9889 19.0852 13.2439 19.0852 13.534C19.0852 13.8238 18.9486 14.0787 18.7453 14.2078C18.5355 14.341 18.4796 14.6099 18.6204 14.8083C18.7612 15.0068 19.0453 15.0597 19.2551 14.9265C19.7176 14.6328 20 14.1059 20 13.534C20 12.962 19.7175 12.4351 19.2551 12.1409C19.0513 12.0112 18.9148 11.7565 18.9148 11.4664C18.9148 11.1768 19.0516 10.9217 19.2554 10.792C19.465 10.6586 19.5207 10.3897 19.3797 10.1913Z" fill="#333333"/>
</g>
</svg>
