<svg width="32" height="32" viewBox="0 0 32 32" fill="none" xmlns="http://www.w3.org/2000/svg">
<path fill-rule="evenodd" clip-rule="evenodd" d="M10.5 2H21.5C21.7761 2 22 2.22386 22 2.5C22 2.77614 21.7761 3 21.5 3H10.5C10.2239 3 10 2.77614 10 2.5C10 2.22386 10.2239 2 10.5 2ZM7 4H25C26.6569 4 28 5.34315 28 7V25C28 26.6569 26.6569 28 25 28H7C5.34315 28 4 26.6569 4 25V7C4 5.34315 5.34315 4 7 4ZM15.5 5H7C5.89543 5 5 5.89543 5 7V25C5 26.1046 5.89543 27 7 27H15.5V5ZM16.5 27V5H25C26.1046 5 27 5.89543 27 7V25C27 26.1046 26.1046 27 25 27H16.5ZM21.5 29H10.5C10.2239 29 10 29.2239 10 29.5C10 29.7761 10.2239 30 10.5 30H21.5C21.7761 30 22 29.7761 22 29.5C22 29.2239 21.7761 29 21.5 29ZM8.96967 14.5303L10.5 16.0607L12.0303 14.5303L12.75 15.25L11.25 16.75C10.8358 17.1642 10.1642 17.1642 9.75 16.75L8.25 15.25L8.96967 14.5303ZM19.25 16.341L19.9697 17.0607L21.5 15.5303L23.0303 17.0607L23.75 16.341L22.25 14.841C21.8358 14.4268 21.1642 14.4268 20.75 14.841L19.25 16.341Z" fill="#333333"/>
</svg>
