<svg width="32" height="32" viewBox="0 0 32 32" fill="none" xmlns="http://www.w3.org/2000/svg">
<g id="icn_facil_spa">
<path id="Vector" fill-rule="evenodd" clip-rule="evenodd" d="M13.3797 2.19133C13.2388 1.99298 12.9546 1.94031 12.7449 2.0737C12.2825 2.36793 12 2.89474 12 3.46642C12 4.03847 12.2821 4.56489 12.7446 4.85915C12.9484 4.98886 13.0852 5.24395 13.0852 5.53398C13.0852 5.82381 12.9486 6.07865 12.7453 6.20779C12.5355 6.341 12.4796 6.60988 12.6204 6.80835C12.7612 7.00682 13.0453 7.05973 13.2551 6.92652C13.7176 6.63277 14 6.10589 14 5.53398C14 4.96197 13.7175 4.43512 13.2551 4.14085C13.0513 4.01118 12.9148 3.75653 12.9148 3.46642C12.9148 3.17675 13.0516 2.92169 13.2554 2.79199C13.465 2.65861 13.5207 2.38968 13.3797 2.19133ZM7.05557 30C5.15541 27.877 4 25.0734 4 22C4 17.157 6.86894 12.9841 11 11.0881V9C11 8.44772 11.4477 8 12 8H20C20.5523 8 21 8.44772 21 9V11.0881C25.1311 12.9841 28 17.157 28 22C28 25.0734 26.8446 27.877 24.9444 30H7.05557ZM24.4858 29C26.0993 27.0471 27 24.5948 27 22C27 17.6576 24.4612 13.7769 20.5829 11.9969L20 11.7294V9H12V11.7294L11.4171 11.9969C7.53884 13.7769 5 17.6576 5 22C5 24.5948 5.90067 27.0471 7.51423 29H24.4858ZM21 21.0769C21 18.273 18.7614 16 16 16C13.2386 16 11 18.273 11 21.0769V27H21V21.0769ZM18 26H20V21.0909C20 18.8316 18.2091 17 16 17C13.7909 17 12 18.8316 12 21.0909V26H14V25.5C14 24.6716 14.597 24 15.3333 24H16.6667C17.403 24 18 24.6716 18 25.5V26ZM17 26H15V25.5C15 25.2239 15.2239 25 15.5 25H16.5C16.7761 25 17 25.2239 17 25.5V26ZM16 23C15.4477 23 15 22.3284 15 21.5C15 20.6716 15.6667 19 16 19C16.3333 19 17 20.6716 17 21.5C17 22.3284 16.5523 23 16 23ZM15.7449 2.0737C15.9546 1.94031 16.2388 1.99298 16.3797 2.19133C16.5207 2.38968 16.465 2.65861 16.2554 2.79199C16.0516 2.92169 15.9148 3.17675 15.9148 3.46642C15.9148 3.75653 16.0513 4.01118 16.2551 4.14085C16.7175 4.43512 17 4.96197 17 5.53398C17 6.10589 16.7176 6.63277 16.2551 6.92652C16.0453 7.05973 15.7612 7.00682 15.6204 6.80835C15.4796 6.60988 15.5355 6.341 15.7453 6.20779C15.9486 6.07865 16.0852 5.82381 16.0852 5.53398C16.0852 5.24395 15.9484 4.98886 15.7446 4.85915C15.2821 4.56489 15 4.03847 15 3.46642C15 2.89474 15.2825 2.36793 15.7449 2.0737ZM19.3797 2.19133C19.2388 1.99298 18.9546 1.94031 18.7449 2.0737C18.2825 2.36793 18 2.89474 18 3.46642C18 4.03847 18.2821 4.56489 18.7446 4.85915C18.9484 4.98886 19.0852 5.24395 19.0852 5.53398C19.0852 5.82381 18.9486 6.07865 18.7453 6.20779C18.5355 6.341 18.4796 6.60988 18.6204 6.80835C18.7612 7.00682 19.0453 7.05973 19.2551 6.92652C19.7176 6.63277 20 6.10589 20 5.53398C20 4.96197 19.7175 4.43512 19.2551 4.14085C19.0513 4.01118 18.9148 3.75653 18.9148 3.46642C18.9148 3.17675 19.0516 2.92169 19.2554 2.79199C19.465 2.65861 19.5207 2.38968 19.3797 2.19133Z" fill="#333333"/>
</g>
</svg>
