<svg width="32" height="32" viewBox="0 0 32 32" fill="none" xmlns="http://www.w3.org/2000/svg">
<path fill-rule="evenodd" clip-rule="evenodd" d="M16 2C8.26631 2 2 8.26801 2 16C2 23.7337 8.26801 30 16 30C23.7337 30 30 23.732 30 16C30 8.26631 23.732 2 16 2ZM16 29C8.81969 29 3 23.1808 3 16C3 8.81969 8.8192 3 16 3C23.1803 3 29 8.8192 29 16C29 23.1803 23.1808 29 16 29ZM12 23.5V11C12 10.4477 12.4477 10 13 10H17.5C19.9853 10 22 12.0147 22 14.5C22 16.9853 19.9853 19 17.5 19H13V23.5C13 23.7761 12.7761 24 12.5 24C12.2239 24 12 23.7761 12 23.5ZM17.5 18H13V11H17.5C19.433 11 21 12.567 21 14.5C21 16.433 19.433 18 17.5 18Z" fill="#333333"/>
</svg>
