<svg width="32" height="32" viewBox="0 0 32 32" fill="none" xmlns="http://www.w3.org/2000/svg">
<path fill-rule="evenodd" clip-rule="evenodd" d="M26 11H24.153C23.6007 11 23.153 10.5523 23.153 10C23.153 9.95268 23.1564 9.90542 23.1631 9.85858L23.8773 4.85858C23.9477 4.36593 24.3696 4 24.8673 4H28.1327C28.6304 4 29.0523 4.36593 29.1227 4.85858L29.8369 9.85858C29.915 10.4053 29.5351 10.9118 28.9884 10.9899C28.9416 10.9966 28.8943 11 28.847 11H27V27C27.5523 27 28 27.4477 28 28H25C25 27.4477 25.4477 27 26 27V11ZM3 25H24C24.5523 25 25 24.5523 25 24V19.5C25 18.2905 24.1411 17.2817 23 17.05V15C23 13.3431 21.6569 12 20 12H7C5.34315 12 4 13.3431 4 15L3.99994 17.05C2.85885 17.2817 2 18.2905 2 19.5V24C2 24.5523 2.44772 25 3 25ZM20 24H7V21H20V24ZM5.00006 17.05C6.14115 17.2817 7 18.2905 7 19.5V20H20V19.5C20 18.2905 20.8589 17.2817 21.9999 17.05L22 15C22 13.8954 21.1046 13 20 13H7C5.89543 13 5 13.8954 5 15V17.05L5.00006 17.05ZM3 19.5C3 18.6716 3.67157 18 4.5 18C5.32843 18 6 18.6716 6 19.5V24H3V19.5ZM22.5 18C21.6716 18 21 18.6716 21 19.5V24H24V19.5C24 18.6716 23.3284 18 22.5 18ZM5 27H22V28H23V27H23.5C23.7761 27 24 26.7761 24 26.5C24 26.2239 23.7761 26 23.5 26H3.5C3.22386 26 3 26.2239 3 26.5C3 26.7761 3.22386 27 3.5 27H4V28H5V27ZM24.153 10L24.8673 5H28.1327L28.847 10H24.153Z" fill="#333333"/>
</svg>
