<svg width="32" height="32" viewBox="0 0 32 32" fill="none" xmlns="http://www.w3.org/2000/svg">
<g id="icn_facil_bath_bubble">
<path id="Vector" fill-rule="evenodd" clip-rule="evenodd" d="M6 9C4.34315 9 3 7.65685 3 6C3 4.34315 4.34315 3 6 3C7.65685 3 9 4.34315 9 6C9 7.65685 7.65685 9 6 9ZM9 14C8.44772 14 8 14.4477 8 15H3.5C3.22386 15 3 15.2239 3 15.5C3 15.7761 3.22386 16 3.5 16H4V21C4 23.7924 5.63505 26.2029 8 27.3264V29H9V27.7101C9.63371 27.8987 10.305 28 11 28H21C21.695 28 22.3663 27.8987 23 27.7101V29H24V27.3264C26.3649 26.2029 28 23.7924 28 21V16H28.5C28.7761 16 29 15.7761 29 15.5C29 15.2239 28.7761 15 28.5 15H26V7C26 5.343 24.657 4 23 4C21.343 4 20 5.343 20 7H19.5C19.2239 7 19 7.22386 19 7.5C19 7.77614 19.2239 8 19.5 8H21.5C21.7761 8 22 7.77614 22 7.5C22 7.22386 21.7761 7 21.5 7H21C21 5.895 21.895 5 23 5C24.105 5 25 5.895 25 7V15H14C14 14.4477 13.5523 14 13 14H9ZM5 16H8V21C8 21.5523 8.44772 22 9 22H13C13.5523 22 14 21.5523 14 21V16H27V21C27 24.3137 24.3137 27 21 27H11C7.68629 27 5 24.3137 5 21V16ZM13 19V15H9V19H13ZM13 20V21H9V20H13ZM11 12C9.89543 12 9 11.1046 9 10C9 8.89543 9.89543 8 11 8C12.1046 8 13 8.89543 13 10C13 11.1046 12.1046 12 11 12ZM12 10C12 10.5523 11.5523 11 11 11C10.4477 11 10 10.5523 10 10C10 9.44772 10.4477 9 11 9C11.5523 9 12 9.44772 12 10ZM8 6C8 7.10457 7.10457 8 6 8C4.89543 8 4 7.10457 4 6C4 4.89543 4.89543 4 6 4C7.10457 4 8 4.89543 8 6Z" fill="#333333"/>
</g>
</svg>
