<svg width="32" height="32" viewBox="0 0 32 32" fill="none" xmlns="http://www.w3.org/2000/svg">
<g id="icn_facil_cafe">
<path id="Vector" fill-rule="evenodd" clip-rule="evenodd" d="M11.7449 3.0737C11.9546 2.94031 12.2388 2.99298 12.3797 3.19133C12.5207 3.38968 12.465 3.65861 12.2554 3.79199C12.0516 3.92169 11.9148 4.17675 11.9148 4.46642C11.9148 4.75653 12.0513 5.01118 12.2551 5.14085C12.7175 5.43512 13 5.96197 13 6.53398C13 7.10589 12.7176 7.63277 12.2551 7.92652C12.0453 8.05973 11.7612 8.00682 11.6204 7.80835C11.4796 7.60988 11.5355 7.341 11.7453 7.20779C11.9486 7.07865 12.0852 6.82381 12.0852 6.53398C12.0852 6.24395 11.9484 5.98886 11.7446 5.85915C11.2821 5.56489 11 5.03847 11 4.46642C11 3.89474 11.2825 3.36793 11.7449 3.0737ZM26 12H25V11C25 10.4477 24.5523 10 24 10H6C5.44772 10 5 10.4477 5 11V17.4645C5 19.7282 5.89928 21.8993 7.5 23.5C9.10072 25.1007 11.2718 26 13.5355 26H16.4693C18.7322 26 20.9023 25.1007 22.5018 23.5C23.7352 22.2658 24.5517 20.6929 24.861 19H26C27.6569 19 29 17.6569 29 16V15C29 13.3431 27.6569 12 26 12ZM6 17.4645V11H24V17.4657C24 19.4637 23.2067 21.3799 21.7944 22.7931C20.3825 24.2061 18.4669 25 16.4693 25H13.5355C11.537 25 9.62029 24.2061 8.20711 22.7929C6.79392 21.3797 6 19.463 6 17.4645ZM25 13V18H26C27.1046 18 28 17.1046 28 16V15C28 13.8954 27.1046 13 26 13H25ZM21.4296 17.5014C21.1542 17.4811 20.9146 17.688 20.8943 17.9634C20.7677 19.6865 19.6122 21.5083 17.3707 22.1089C17.104 22.1804 16.9457 22.4546 17.0172 22.7213C17.0886 22.988 17.3628 23.1463 17.6295 23.0749C20.3388 22.3489 21.7368 20.1448 21.8916 18.0367C21.9119 17.7613 21.705 17.5216 21.4296 17.5014ZM15.3797 3.19133C15.2388 2.99298 14.9546 2.94031 14.7449 3.0737C14.2825 3.36793 14 3.89474 14 4.46642C14 5.03847 14.2821 5.56489 14.7446 5.85915C14.9484 5.98886 15.0852 6.24395 15.0852 6.53398C15.0852 6.82381 14.9486 7.07865 14.7453 7.20779C14.5355 7.341 14.4796 7.60988 14.6204 7.80835C14.7612 8.00682 15.0453 8.05973 15.2551 7.92652C15.7176 7.63277 16 7.10589 16 6.53398C16 5.96197 15.7175 5.43512 15.2551 5.14085C15.0513 5.01118 14.9148 4.75653 14.9148 4.46642C14.9148 4.17675 15.0516 3.92169 15.2554 3.79199C15.465 3.65861 15.5207 3.38968 15.3797 3.19133ZM17.7449 3.0737C17.9546 2.94031 18.2388 2.99298 18.3797 3.19133C18.5207 3.38968 18.465 3.65861 18.2554 3.79199C18.0516 3.92169 17.9148 4.17675 17.9148 4.46642C17.9148 4.75653 18.0513 5.01118 18.2551 5.14085C18.7175 5.43512 19 5.96197 19 6.53398C19 7.10589 18.7176 7.63277 18.2551 7.92652C18.0453 8.05973 17.7612 8.00682 17.6204 7.80835C17.4796 7.60988 17.5355 7.341 17.7453 7.20779C17.9486 7.07865 18.0852 6.82381 18.0852 6.53398C18.0852 6.24395 17.9484 5.98886 17.7446 5.85915C17.2821 5.56489 17 5.03847 17 4.46642C17 3.89474 17.2825 3.36793 17.7449 3.0737ZM24.5 28H6.5C6.22386 28 6 28.2239 6 28.5C6 28.7761 6.22386 29 6.5 29H24.5C24.7761 29 25 28.7761 25 28.5C25 28.2239 24.7761 28 24.5 28Z" fill="#333333"/>
</g>
</svg>
