<svg width="32" height="32" viewBox="0 0 32 32" fill="none" xmlns="http://www.w3.org/2000/svg">
<g id="icn_facil_towel">
<path id="Vector" fill-rule="evenodd" clip-rule="evenodd" d="M24 28V15H25C26.6569 15 28 13.6569 28 12C28 10.3431 26.6569 9 25 9H16V8C17.6569 8 19 6.65685 19 5C19 3.34315 17.6569 2 16 2C14.3431 2 13 3.34315 13 5C13 5.27614 13.2239 5.5 13.5 5.5C13.7761 5.5 14 5.27614 14 5C14 3.89543 14.8954 3 16 3C17.1046 3 18 3.89543 18 5C18 6.10457 17.1046 7 16 7C15.4477 7 15 7.44772 15 8V9H7C5.34315 9 4 10.3431 4 12C4 13.6569 5.34315 15 7 15H8V28C8 29.1046 8.89543 30 10 30H22C23.1046 30 24 29.1046 24 28ZM25 14H24C24 12.8954 23.1046 12 22 12H10C8.89543 12 8 12.8954 8 14H7C5.89543 14 5 13.1046 5 12C5 10.8954 5.89543 10 7 10H25C26.1046 10 27 10.8954 27 12C27 13.1046 26.1046 14 25 14ZM23 26V14C23 13.4477 22.5523 13 22 13H10C9.44772 13 9 13.4477 9 14V26H23ZM9 28V27H23V28C23 28.5523 22.5523 29 22 29H10C9.44772 29 9 28.5523 9 28Z" fill="#333333"/>
</g>
</svg>
