<svg width="32" height="32" viewBox="0 0 32 32" fill="none" xmlns="http://www.w3.org/2000/svg">
<g id="icn_facil_creditcard">
<path id="Vector" fill-rule="evenodd" clip-rule="evenodd" d="M16 2C8.26631 2 2 8.26801 2 16C2 23.7337 8.26801 30 16 30C23.7337 30 30 23.732 30 16C30 8.26631 23.732 2 16 2ZM16 29C8.81969 29 3 23.1808 3 16C3 8.81969 8.8192 3 16 3C23.1803 3 29 8.8192 29 16C29 23.1803 23.1808 29 16 29ZM23 10C24.1046 10 25 10.8954 25 12V20C25 21.1046 24.1046 22 23 22H9C7.89543 22 7 21.1046 7 20V12C7 10.8954 7.89543 10 9 10H23ZM8 12C8 11.4477 8.44772 11 9 11H23C23.5523 11 24 11.4477 24 12V20C24 20.5523 23.5523 21 23 21H9C8.44772 21 8 20.5523 8 20V12ZM11 16H12C12.5523 16 13 16.4477 13 17V18C13 18.5523 12.5523 19 12 19H11C10.4477 19 10 18.5523 10 18V17C10 16.4477 10.4477 16 11 16ZM11 18V17H12V18H11ZM19.5 13H21.5C21.7761 13 22 13.2239 22 13.5C22 13.7761 21.7761 14 21.5 14H19.5C19.2239 14 19 13.7761 19 13.5C19 13.2239 19.2239 13 19.5 13ZM21.5 15H19.5C19.2239 15 19 15.2239 19 15.5C19 15.7761 19.2239 16 19.5 16H21.5C21.7761 16 22 15.7761 22 15.5C22 15.2239 21.7761 15 21.5 15Z" fill="#333333"/>
</g>
</svg>
