<svg width="32" height="32" viewBox="0 0 32 32" fill="none" xmlns="http://www.w3.org/2000/svg">
<path fill-rule="evenodd" clip-rule="evenodd" d="M27 24.5C27 25.8807 28.1193 27 29.5 27C29.7761 27 30 27.2239 30 27.5C30 27.7761 29.7761 28 29.5 28C28.2268 28 27.1124 27.3202 26.5 26.3038C25.8876 27.3202 24.7732 28 23.5 28C22.2268 28 21.1124 27.3202 20.5 26.3038C19.8876 27.3202 18.7732 28 17.5 28C16.2268 28 15.1124 27.3202 14.5 26.3038C13.8876 27.3202 12.7732 28 11.5 28C10.2268 28 9.11245 27.3202 8.5 26.3038C7.88755 27.3202 6.77316 28 5.5 28C3.567 28 2 26.433 2 24.5C2 24.2239 2.22386 24 2.5 24C2.77614 24 3 24.2239 3 24.5C3 25.8807 4.11929 27 5.5 27C6.88071 27 8 25.8807 8 24.5V7.5C8 5.567 9.567 4 11.5 4C13.433 4 15 5.567 15 7.5C15 7.77614 14.7761 8 14.5 8C14.2239 8 14 7.77614 14 7.5C14 6.11929 12.8807 5 11.5 5C10.1193 5 9 6.11929 9 7.5V12H20V7.5C20 5.567 21.567 4 23.5 4C25.433 4 27 5.567 27 7.5C27 7.77614 26.7761 8 26.5 8C26.2239 8 26 7.77614 26 7.5C26 6.11929 24.8807 5 23.5 5C22.1193 5 21 6.11929 21 7.5V24.5C21 25.8807 22.1193 27 23.5 27C24.8807 27 26 25.8807 26 24.5C26 24.2239 26.2239 24 26.5 24C26.7761 24 27 24.2239 27 24.5ZM20 24.5V20H9V24.5C9 25.8807 10.1193 27 11.5 27C12.8807 27 14 25.8807 14 24.5C14 24.2239 14.2239 24 14.5 24C14.7761 24 15 24.2239 15 24.5C15 25.8807 16.1193 27 17.5 27C18.8807 27 20 25.8807 20 24.5ZM9 19V13H20V19H9Z" fill="#333333"/>
</svg>
