<svg width="32" height="32" viewBox="0 0 32 32" fill="none" xmlns="http://www.w3.org/2000/svg">
<g id="icn_facil_svc_luggage">
<path id="Vector" fill-rule="evenodd" clip-rule="evenodd" d="M15.5 2.49539V3.01115C9.65573 3.27237 5 8.08998 5 13.9948V25H3.49617C3.22477 25 3 25.2239 3 25.5C3 25.7681 3.22214 26 3.49617 26H8C6.89543 26 6 26.8954 6 28C6 29.1046 6.89543 30 8 30C9.10457 30 10 29.1046 10 28C10 26.8954 9.10457 26 8 26H24C22.8954 26 22 26.8954 22 28C22 29.1046 22.8954 30 24 30C25.1046 30 26 29.1046 26 28C26 26.8954 25.1046 26 24 26H28.5038C28.7752 26 29 25.7761 29 25.5C29 25.2319 28.7779 25 28.5038 25H27V13.9948C27 8.10125 22.3431 3.27305 16.5 3.01118V2.49539C16.5 2.21575 16.2761 2 16 2C15.7319 2 15.5 2.22179 15.5 2.49539ZM26 25H25V17.9996C25 16.8874 24.1068 16 23.0049 16H22V12.0059C22 10.8866 21.1007 10 19.9915 10H12.0085C10.902 10 10 10.8981 10 12.0059V16H8.99509C7.89262 16 7 16.8953 7 17.9996V25H6V14.008C6 8.64848 10.2084 4.27296 15.5 4.01229V4.50461C15.5 4.78425 15.7239 5 16 5C16.2681 5 16.5 4.77821 16.5 4.50461V4.01229C21.7906 4.27293 26 8.64711 26 14.008V25ZM24 25V17.9975C24 17.4463 23.5519 17 22.9991 17H9.00087C8.44463 17 8 17.4466 8 17.9975V25H24ZM21 11.9908V16H11V11.9908C11 11.4436 11.4557 11 11.9954 11H20.0046C20.5543 11 21 11.451 21 11.9908ZM25 28C25 28.5523 24.5523 29 24 29C23.4477 29 23 28.5523 23 28C23 27.4477 23.4477 27 24 27C24.5523 27 25 27.4477 25 28ZM9 28C9 28.5523 8.55228 29 8 29C7.44772 29 7 28.5523 7 28C7 27.4477 7.44772 27 8 27C8.55228 27 9 27.4477 9 28ZM14 20.5C14 20.2239 14.2151 20 14.4905 20H17.5095C17.7804 20 18 20.2319 18 20.5C18 20.7761 17.7849 21 17.5095 21H14.4905C14.2196 21 14 20.7681 14 20.5ZM15.5047 13C15.214 13 15 13.2239 15 13.5C15 13.7681 15.226 14 15.5047 14H16.4953C16.786 14 17 13.7761 17 13.5C17 13.2319 16.774 13 16.4953 13H15.5047Z" fill="#333333"/>
</g>
</svg>
