<svg width="32" height="32" viewBox="0 0 32 32" fill="none" xmlns="http://www.w3.org/2000/svg">
<g id="icn_facil_iron">
<path id="Vector" fill-rule="evenodd" clip-rule="evenodd" d="M26.4752 8.35323L28.4749 6.35354C28.6701 6.15828 28.9867 6.15828 29.182 6.35354C29.3772 6.5488 29.3772 6.86538 29.182 7.06065L27.1319 9.11075C27.212 9.27229 27.2713 9.4469 27.3059 9.63141L29.7779 22.8157C29.8797 23.3585 29.5222 23.8811 28.9794 23.9829C28.9186 23.9943 28.8569 24 28.7951 24H2.5C2.25 24 2 23.75 2 23.5V18C2 12.4771 6.47715 7.99999 12 7.99999H25.3401C25.7582 7.99999 26.1506 8.12935 26.4752 8.35323ZM3 23H28.7951L26.323 9.8157C26.2343 9.34272 25.8214 8.99999 25.3401 8.99999H12C7.02944 8.99999 3 13.0294 3 18V23ZM22.3057 11H18C14.8534 11 12.294 13.4299 12.0202 16.5038C11.9984 16.7492 12.2472 17 12.5 17H23.8195C23.8746 17 23.9296 16.9954 23.9839 16.9864C24.5287 16.8956 24.8967 16.3804 24.8059 15.8356L24.2785 12.6712C24.1178 11.7068 23.2834 11 22.3057 11ZM23.8195 16L23.2921 12.8356C23.2118 12.3534 22.7946 12 22.3057 12H18C15.581 12 13.5633 13.7177 13.1 16H23.8195ZM26.5 25H3.5C3.22386 25 3 25.2238 3 25.5V25.5909C3 25.867 3.22386 26.0909 3.5 26.0909H26.5C26.7761 26.0909 27 25.867 27 25.5909V25.5C27 25.2238 26.7761 25 26.5 25Z" fill="#333333"/>
</g>
</svg>
