<svg width="32" height="32" viewBox="0 0 32 32" fill="none" xmlns="http://www.w3.org/2000/svg">
<g id="icn_facil_shower">
<path id="Vector" fill-rule="evenodd" clip-rule="evenodd" d="M7 2H25C26.6569 2 28 3.34315 28 5V27C28 27.5523 27.5523 28 27 28H5C4.44772 28 4 27.5523 4 27V5C4 3.34315 5.34315 2 7 2ZM15.5 3H7C5.89543 3 5 3.89543 5 5V27H15.5V3ZM16.5 27V3H25C26.1046 3 27 3.89543 27 5V27H16.5ZM21.5 5C23.433 5 25 6.567 25 8.5C25 8.77614 24.7761 9 24.5 9H18.5C18.2239 9 18 8.77614 18 8.5C18 6.567 19.567 5 21.5 5ZM19.05 8C19.2816 6.85888 20.2905 6 21.5 6C22.7095 6 23.7184 6.85888 23.95 8H19.05ZM19 14H20V15H19V14ZM22 12V11H21V12H22ZM23 14H24V15H23V14ZM20 11H19V12H20V11ZM20 17H19V18H20V17ZM19 20H20V21H19V20ZM22 14V15H21V14H22ZM24 17H23V18H24V17ZM23 20H24V21H23V20ZM22 18V17H21V18H22ZM22 20V21H21V20H22ZM24 11H23V12H24V11ZM5.5 29H26.5C26.7761 29 27 29.2239 27 29.5C27 29.7761 26.7761 30 26.5 30H5.5C5.22386 30 5 29.7761 5 29.5C5 29.2239 5.22386 29 5.5 29ZM14 14.5C14 14.2239 13.7761 14 13.5 14C13.2239 14 13 14.2239 13 14.5V16.5C13 16.7761 13.2239 17 13.5 17C13.7761 17 14 16.7761 14 16.5V14.5Z" fill="#333333"/>
</g>
</svg>
