<svg width="32" height="32" viewBox="0 0 32 32" fill="none" xmlns="http://www.w3.org/2000/svg">
<g id="icn_facil_hairdryer">
<path id="Vector" fill-rule="evenodd" clip-rule="evenodd" d="M12 26V17.5748L23.1351 16.0563C23.6306 15.9888 24 15.5656 24 15.0655V6.81128C24 6.31121 23.6306 5.88802 23.1351 5.82045L9.92664 4.0193C9.61395 3.97665 9.29872 3.95526 8.98313 3.95526C5.12645 3.95526 2 7.08171 2 10.9384C2 11.254 2.02139 11.5692 2.06403 11.8819C2.39525 14.3109 3.93821 16.2768 6 17.2532V26C6 27.6569 7.34315 29 9 29C10.6569 29 12 27.6569 12 26ZM8.98313 4.95526C9.25353 4.95526 9.52361 4.97359 9.79153 5.01013L23 6.81128V15.0655L9.79153 16.8667C6.51744 17.3131 3.50133 15.0209 3.05486 11.7468C3.01833 11.4789 3 11.2088 3 10.9384C3 7.634 5.67874 4.95526 8.98313 4.95526ZM11 17.7111L9.92664 17.8575C8.91313 17.9957 7.92081 17.909 7 17.6358V26C7 27.1046 7.89543 28 9 28C10.1046 28 11 27.1046 11 26V17.7111ZM6 11C6 12.6569 7.34315 14 9 14C10.6569 14 12 12.6569 12 11C12 9.34317 10.6569 8.00003 9 8.00003C7.34315 8.00003 6 9.34317 6 11ZM9 13C10.1046 13 11 12.1046 11 11C11 9.89546 10.1046 9.00003 9 9.00003C7.89543 9.00003 7 9.89546 7 11C7 12.1046 7.89543 13 9 13ZM29.8087 8.37976C30.007 8.2388 30.0597 7.95459 29.9263 7.74497C29.6321 7.28256 29.1053 7.00003 28.5336 7.00003C27.9615 7.00003 27.4351 7.28217 27.1409 7.74461C27.0111 7.94847 26.7561 8.08524 26.466 8.08524C26.1762 8.08524 25.9213 7.94865 25.7922 7.74531C25.659 7.53556 25.3901 7.47964 25.1917 7.62042C24.9932 7.7612 24.9403 8.04536 25.0735 8.25511C25.3672 8.71764 25.8941 9.00003 26.466 9.00003C27.038 9.00003 27.5649 8.71755 27.8591 8.25508C27.9888 8.0513 28.2435 7.91482 28.5336 7.91482C28.8232 7.91482 29.0783 8.05161 29.208 8.25545C29.3414 8.46507 29.6103 8.52073 29.8087 8.37976ZM29.9263 10.745C30.0597 10.9546 30.007 11.2388 29.8087 11.3798C29.6103 11.5207 29.3414 11.4651 29.208 11.2554C29.0783 11.0516 28.8232 10.9148 28.5336 10.9148C28.2435 10.9148 27.9888 11.0513 27.8591 11.2551C27.5649 11.7176 27.038 12 26.466 12C25.8941 12 25.3672 11.7176 25.0735 11.2551C24.9403 11.0454 24.9932 10.7612 25.1917 10.6204C25.3901 10.4796 25.659 10.5356 25.7922 10.7453C25.9213 10.9487 26.1762 11.0852 26.466 11.0852C26.7561 11.0852 27.0111 10.9485 27.1409 10.7446C27.4351 10.2822 27.9615 10 28.5336 10C29.1053 10 29.6321 10.2826 29.9263 10.745ZM29.8087 14.3798C30.007 14.2388 30.0597 13.9546 29.9263 13.745C29.6321 13.2826 29.1053 13 28.5336 13C27.9615 13 27.4351 13.2822 27.1409 13.7446C27.0111 13.9485 26.7561 14.0852 26.466 14.0852C26.1762 14.0852 25.9213 13.9487 25.7922 13.7453C25.659 13.5356 25.3901 13.4796 25.1917 13.6204C24.9932 13.7612 24.9403 14.0454 25.0735 14.2551C25.3672 14.7176 25.8941 15 26.466 15C27.038 15 27.5649 14.7176 27.8591 14.2551C27.9888 14.0513 28.2435 13.9148 28.5336 13.9148C28.8232 13.9148 29.0783 14.0516 29.208 14.2554C29.3414 14.4651 29.6103 14.5207 29.8087 14.3798Z" fill="#333333"/>
</g>
</svg>
