<svg width="32" height="32" viewBox="0 0 32 32" fill="none" xmlns="http://www.w3.org/2000/svg">
<g id="icn_facil_fridge">
<path id="Vector" fill-rule="evenodd" clip-rule="evenodd" d="M22 29H10V30H9V29H6.9918C6.44405 29 6 28.5539 6 28.007V4.99263C6 3.33985 7.34331 2 8.9942 2H23.0058C24.6595 2 26 3.33893 26 4.99263V28.007C26 28.5554 25.5447 29 25.0082 29H23V30H22V29ZM7 13V28H25V13H7ZM25 12H7V4.99263C7 3.89335 7.89438 3 8.9942 3H23.0058C24.1076 3 25 3.8917 25 4.99263V12ZM9 9.5C9 9.22386 9.21575 9 9.49539 9H11.5046C11.7782 9 12 9.23193 12 9.5C12 9.77614 11.7842 10 11.5046 10H9.49539C9.22179 10 9 9.76807 9 9.5ZM9.49539 15C9.21575 15 9 15.2239 9 15.5C9 15.7681 9.22179 16 9.49539 16H11.5046C11.7842 16 12 15.7761 12 15.5C12 15.2319 11.7782 15 11.5046 15H9.49539Z" fill="#333333"/>
</g>
</svg>
