<svg width="32" height="32" viewBox="0 0 32 32" fill="none" xmlns="http://www.w3.org/2000/svg">
<g id="icn_facil_aircon">
<path id="Vector" fill-rule="evenodd" clip-rule="evenodd" d="M26 16C26 16.5523 25.5523 17 25 17H7C6.44772 17 6 16.5523 6 16H4C2.89543 16 2 15.1046 2 14V6C2 4.89543 2.89543 4 4 4H28C29.1046 4 30 4.89543 30 6V14C30 15.1046 29.1046 16 28 16H26ZM26 15H28C28.5523 15 29 14.5523 29 14V6C29 5.44772 28.5523 5 28 5H4C3.44772 5 3 5.44772 3 6V14C3 14.5523 3.44772 15 4 15H6V13C6 11.8954 6.89543 11 8 11H24C25.1046 11 26 11.8954 26 13V15ZM7 13C7 12.4477 7.44772 12 8 12H24C24.5523 12 25 12.4477 25 13V16H7V13ZM10.5 20C10.7761 20 11 20.2239 11 20.5V27.5C11 27.7761 10.7761 28 10.5 28C10.2239 28 10 27.7761 10 27.5V20.5C10 20.2239 10.2239 20 10.5 20ZM16.5 20.5C16.5 20.2239 16.2761 20 16 20C15.7239 20 15.5 20.2239 15.5 20.5V27.5C15.5 27.7761 15.7239 28 16 28C16.2761 28 16.5 27.7761 16.5 27.5V20.5ZM21.5 20C21.7761 20 22 20.2239 22 20.5V27.5C22 27.7761 21.7761 28 21.5 28C21.2239 28 21 27.7761 21 27.5V20.5C21 20.2239 21.2239 20 21.5 20ZM26.5 8H24.5C24.2239 8 24 8.22386 24 8.5C24 8.77614 24.2239 9 24.5 9H26.5C26.7761 9 27 8.77614 27 8.5C27 8.22386 26.7761 8 26.5 8Z" fill="#333333"/>
</g>
</svg>
